<mxfile host="app.diagrams.net" agent="Mozilla/5.0 (Windows NT 10.0; Win64; x64) AppleWebKit/537.36 (KHTML, like Gecko) Chrome/131.0.0.0 Safari/537.36 OPR/116.0.0.0" version="26.1.0">
  <diagram name="Strona-1" id="TzqRhlVC07BV4d27CE-a">
    <mxGraphModel dx="1392" dy="753" grid="1" gridSize="10" guides="1" tooltips="1" connect="1" arrows="1" fold="1" page="1" pageScale="1" pageWidth="827" pageHeight="1169" math="0" shadow="0">
      <root>
        <mxCell id="0" />
        <mxCell id="1" parent="0" />
        <mxCell id="IxWMXOS129A1g6PJ6h58-1" value="&lt;font style=&quot;font-size: 18px;&quot;&gt;Start&lt;/font&gt;&lt;div&gt;&lt;br&gt;&lt;/div&gt;" style="ellipse;whiteSpace=wrap;html=1;" vertex="1" parent="1">
          <mxGeometry x="250" y="20" width="110" height="80" as="geometry" />
        </mxCell>
        <mxCell id="IxWMXOS129A1g6PJ6h58-3" value="" style="endArrow=classic;html=1;rounded=0;exitX=0.6;exitY=0.963;exitDx=0;exitDy=0;exitPerimeter=0;entryX=0.5;entryY=0;entryDx=0;entryDy=0;" edge="1" parent="1" source="IxWMXOS129A1g6PJ6h58-1" target="IxWMXOS129A1g6PJ6h58-11">
          <mxGeometry width="50" height="50" relative="1" as="geometry">
            <mxPoint x="370" y="220" as="sourcePoint" />
            <mxPoint x="414" y="150" as="targetPoint" />
          </mxGeometry>
        </mxCell>
        <mxCell id="IxWMXOS129A1g6PJ6h58-10" style="edgeStyle=orthogonalEdgeStyle;rounded=0;orthogonalLoop=1;jettySize=auto;html=1;entryX=1;entryY=0.5;entryDx=0;entryDy=0;exitX=0;exitY=0.5;exitDx=0;exitDy=0;" edge="1" parent="1" source="IxWMXOS129A1g6PJ6h58-11" target="IxWMXOS129A1g6PJ6h58-8">
          <mxGeometry relative="1" as="geometry">
            <mxPoint x="240" y="185" as="sourcePoint" />
          </mxGeometry>
        </mxCell>
        <mxCell id="IxWMXOS129A1g6PJ6h58-32" style="edgeStyle=orthogonalEdgeStyle;rounded=0;orthogonalLoop=1;jettySize=auto;html=1;" edge="1" parent="1" source="IxWMXOS129A1g6PJ6h58-8" target="IxWMXOS129A1g6PJ6h58-31">
          <mxGeometry relative="1" as="geometry" />
        </mxCell>
        <mxCell id="IxWMXOS129A1g6PJ6h58-8" value="a=0" style="rounded=0;whiteSpace=wrap;html=1;" vertex="1" parent="1">
          <mxGeometry x="180" y="170" width="30" height="30" as="geometry" />
        </mxCell>
        <mxCell id="IxWMXOS129A1g6PJ6h58-15" value="" style="edgeStyle=orthogonalEdgeStyle;rounded=0;orthogonalLoop=1;jettySize=auto;html=1;" edge="1" parent="1" source="IxWMXOS129A1g6PJ6h58-11" target="IxWMXOS129A1g6PJ6h58-14">
          <mxGeometry relative="1" as="geometry" />
        </mxCell>
        <mxCell id="IxWMXOS129A1g6PJ6h58-11" value="Podaj (a,b,c)" style="shape=parallelogram;perimeter=parallelogramPerimeter;whiteSpace=wrap;html=1;fixedSize=1;" vertex="1" parent="1">
          <mxGeometry x="250" y="150" width="120" height="60" as="geometry" />
        </mxCell>
        <mxCell id="IxWMXOS129A1g6PJ6h58-12" value="STOP" style="ellipse;whiteSpace=wrap;html=1;" vertex="1" parent="1">
          <mxGeometry x="20" y="260" width="120" height="80" as="geometry" />
        </mxCell>
        <mxCell id="IxWMXOS129A1g6PJ6h58-18" style="edgeStyle=orthogonalEdgeStyle;rounded=0;orthogonalLoop=1;jettySize=auto;html=1;entryX=1.038;entryY=0.65;entryDx=0;entryDy=0;entryPerimeter=0;" edge="1" parent="1" source="IxWMXOS129A1g6PJ6h58-14" target="IxWMXOS129A1g6PJ6h58-16">
          <mxGeometry relative="1" as="geometry">
            <mxPoint x="670" y="310" as="targetPoint" />
          </mxGeometry>
        </mxCell>
        <mxCell id="IxWMXOS129A1g6PJ6h58-22" style="edgeStyle=orthogonalEdgeStyle;rounded=0;orthogonalLoop=1;jettySize=auto;html=1;entryX=0;entryY=0.5;entryDx=0;entryDy=0;" edge="1" parent="1" source="IxWMXOS129A1g6PJ6h58-14" target="IxWMXOS129A1g6PJ6h58-21">
          <mxGeometry relative="1" as="geometry" />
        </mxCell>
        <mxCell id="IxWMXOS129A1g6PJ6h58-24" style="edgeStyle=orthogonalEdgeStyle;rounded=0;orthogonalLoop=1;jettySize=auto;html=1;entryX=0.5;entryY=0;entryDx=0;entryDy=0;" edge="1" parent="1" source="IxWMXOS129A1g6PJ6h58-14" target="IxWMXOS129A1g6PJ6h58-19">
          <mxGeometry relative="1" as="geometry" />
        </mxCell>
        <mxCell id="IxWMXOS129A1g6PJ6h58-14" value="Delta=b^2-4ac" style="whiteSpace=wrap;html=1;aspect=fixed;" vertex="1" parent="1">
          <mxGeometry x="430" y="130" width="80" height="80" as="geometry" />
        </mxCell>
        <mxCell id="IxWMXOS129A1g6PJ6h58-16" value="Delta=0&lt;div&gt;x0 = -(b) / 2*a&lt;/div&gt;" style="whiteSpace=wrap;html=1;aspect=fixed;" vertex="1" parent="1">
          <mxGeometry x="340" y="270" width="90" height="90" as="geometry" />
        </mxCell>
        <mxCell id="IxWMXOS129A1g6PJ6h58-38" style="edgeStyle=orthogonalEdgeStyle;rounded=0;orthogonalLoop=1;jettySize=auto;html=1;entryX=0.5;entryY=0;entryDx=0;entryDy=0;" edge="1" parent="1" source="IxWMXOS129A1g6PJ6h58-19" target="IxWMXOS129A1g6PJ6h58-37">
          <mxGeometry relative="1" as="geometry" />
        </mxCell>
        <mxCell id="IxWMXOS129A1g6PJ6h58-19" value="Delta &amp;lt;0" style="whiteSpace=wrap;html=1;aspect=fixed;" vertex="1" parent="1">
          <mxGeometry x="450" y="270" width="90" height="90" as="geometry" />
        </mxCell>
        <mxCell id="IxWMXOS129A1g6PJ6h58-42" style="edgeStyle=orthogonalEdgeStyle;rounded=0;orthogonalLoop=1;jettySize=auto;html=1;entryX=0.5;entryY=0;entryDx=0;entryDy=0;" edge="1" parent="1" source="IxWMXOS129A1g6PJ6h58-21" target="IxWMXOS129A1g6PJ6h58-41">
          <mxGeometry relative="1" as="geometry" />
        </mxCell>
        <mxCell id="IxWMXOS129A1g6PJ6h58-21" value="Delta &amp;gt;0&lt;div&gt;x1=b^2-(delta^0.5) / (2*a)&lt;/div&gt;&lt;div&gt;x1=b^2+(delta^0.5) / (2*a)&lt;/div&gt;" style="whiteSpace=wrap;html=1;aspect=fixed;" vertex="1" parent="1">
          <mxGeometry x="580" y="130" width="140" height="140" as="geometry" />
        </mxCell>
        <mxCell id="IxWMXOS129A1g6PJ6h58-25" value="STOP" style="ellipse;whiteSpace=wrap;html=1;" vertex="1" parent="1">
          <mxGeometry x="325" y="510" width="90" height="80" as="geometry" />
        </mxCell>
        <mxCell id="IxWMXOS129A1g6PJ6h58-26" value="STOP" style="ellipse;whiteSpace=wrap;html=1;" vertex="1" parent="1">
          <mxGeometry x="440" y="510" width="90" height="80" as="geometry" />
        </mxCell>
        <mxCell id="IxWMXOS129A1g6PJ6h58-27" value="STOP" style="ellipse;whiteSpace=wrap;html=1;" vertex="1" parent="1">
          <mxGeometry x="605" y="510" width="90" height="80" as="geometry" />
        </mxCell>
        <mxCell id="IxWMXOS129A1g6PJ6h58-33" style="edgeStyle=orthogonalEdgeStyle;rounded=0;orthogonalLoop=1;jettySize=auto;html=1;entryX=0.5;entryY=0;entryDx=0;entryDy=0;" edge="1" parent="1" source="IxWMXOS129A1g6PJ6h58-31" target="IxWMXOS129A1g6PJ6h58-12">
          <mxGeometry relative="1" as="geometry" />
        </mxCell>
        <mxCell id="IxWMXOS129A1g6PJ6h58-31" value="To równianie liniowe" style="shape=parallelogram;perimeter=parallelogramPerimeter;whiteSpace=wrap;html=1;fixedSize=1;" vertex="1" parent="1">
          <mxGeometry x="20" y="140" width="130" height="60" as="geometry" />
        </mxCell>
        <mxCell id="IxWMXOS129A1g6PJ6h58-36" style="edgeStyle=orthogonalEdgeStyle;rounded=0;orthogonalLoop=1;jettySize=auto;html=1;entryX=0.5;entryY=0;entryDx=0;entryDy=0;" edge="1" parent="1" source="IxWMXOS129A1g6PJ6h58-34" target="IxWMXOS129A1g6PJ6h58-25">
          <mxGeometry relative="1" as="geometry" />
        </mxCell>
        <mxCell id="IxWMXOS129A1g6PJ6h58-34" value="Pisz:x0" style="shape=parallelogram;perimeter=parallelogramPerimeter;whiteSpace=wrap;html=1;fixedSize=1;" vertex="1" parent="1">
          <mxGeometry x="310" y="380" width="120" height="60" as="geometry" />
        </mxCell>
        <mxCell id="IxWMXOS129A1g6PJ6h58-35" style="edgeStyle=orthogonalEdgeStyle;rounded=0;orthogonalLoop=1;jettySize=auto;html=1;exitX=0.5;exitY=1;exitDx=0;exitDy=0;entryX=0.583;entryY=0;entryDx=0;entryDy=0;entryPerimeter=0;" edge="1" parent="1" source="IxWMXOS129A1g6PJ6h58-16" target="IxWMXOS129A1g6PJ6h58-34">
          <mxGeometry relative="1" as="geometry" />
        </mxCell>
        <mxCell id="IxWMXOS129A1g6PJ6h58-40" style="edgeStyle=orthogonalEdgeStyle;rounded=0;orthogonalLoop=1;jettySize=auto;html=1;entryX=0.5;entryY=0;entryDx=0;entryDy=0;" edge="1" parent="1" source="IxWMXOS129A1g6PJ6h58-37" target="IxWMXOS129A1g6PJ6h58-26">
          <mxGeometry relative="1" as="geometry" />
        </mxCell>
        <mxCell id="IxWMXOS129A1g6PJ6h58-37" value="Pisz:Brak Roziązań" style="shape=parallelogram;perimeter=parallelogramPerimeter;whiteSpace=wrap;html=1;fixedSize=1;" vertex="1" parent="1">
          <mxGeometry x="430" y="380" width="140" height="60" as="geometry" />
        </mxCell>
        <mxCell id="IxWMXOS129A1g6PJ6h58-43" style="edgeStyle=orthogonalEdgeStyle;rounded=0;orthogonalLoop=1;jettySize=auto;html=1;entryX=0.5;entryY=0;entryDx=0;entryDy=0;" edge="1" parent="1" source="IxWMXOS129A1g6PJ6h58-41" target="IxWMXOS129A1g6PJ6h58-27">
          <mxGeometry relative="1" as="geometry" />
        </mxCell>
        <mxCell id="IxWMXOS129A1g6PJ6h58-41" value="Pisz: (x1,x2)" style="shape=parallelogram;perimeter=parallelogramPerimeter;whiteSpace=wrap;html=1;fixedSize=1;" vertex="1" parent="1">
          <mxGeometry x="580" y="380" width="140" height="60" as="geometry" />
        </mxCell>
      </root>
    </mxGraphModel>
  </diagram>
</mxfile>
